HIERARCHY
ROOT hip
{
	OFFSET 0.000000 0.000000 0.000000 
	CHANNELS 6 Xposition Yposition Zposition Xrotation Zrotation Yrotation
	JOINT abdomen
	{
		OFFSET 0.000000 3.402643 0.000000 
		CHANNELS 3 Xrotation Zrotation Yrotation
		JOINT chest
		{
			OFFSET 0.000000 8.438565 -0.680529 
			CHANNELS 3 Xrotation Zrotation Yrotation
			JOINT neck
			{
				OFFSET 0.000000 10.207942 -0.272212 
				CHANNELS 3 Xrotation Zrotation Yrotation
				JOINT head
				{
					OFFSET 0.000000 3.130431 0.000000 
					CHANNELS 3 Xrotation Zrotation Yrotation
					End Site
					{
						OFFSET 0.000000 3.130435 0.000000 
					}
				}
			}
			JOINT lCollar
			{
				OFFSET 3.470700 6.669187 -0.816635 
				CHANNELS 3 Yrotation Zrotation Xrotation
				JOINT lShldr
				{
					OFFSET 3.198488 0.000000 0.000000 
					CHANNELS 3 Zrotation Yrotation Xrotation
					JOINT lForeArm
					{
						OFFSET 10.139888 0.000000 0.000000 
						CHANNELS 3 Yrotation Zrotation Xrotation
						JOINT lHand
						{
							OFFSET 8.370511 0.000000 0.000000 
							CHANNELS 3 Zrotation Yrotation Xrotation
							End Site
							{
								OFFSET 4.083176 0.000000 0.000000 
							}
						}
					}
				}
			}
			JOINT rCollar
			{
				OFFSET -3.470700 6.669187 -0.816635 
				CHANNELS 3 Yrotation Zrotation Xrotation
				JOINT rShldr
				{
					OFFSET -3.198488 0.000000 0.000000 
					CHANNELS 3 Zrotation Yrotation Xrotation
					JOINT rForeArm
					{
						OFFSET -10.139888 0.000000 0.000000 
						CHANNELS 3 Yrotation Zrotation Xrotation
						JOINT rHand
						{
							OFFSET -8.370511 0.000000 0.000000 
							CHANNELS 3 Zrotation Yrotation Xrotation
							End Site
							{
								OFFSET -4.083176 0.000000 0.000000 
							}
						}
					}
				}
			}
		}
	}
	JOINT lThigh
	{
		OFFSET 5.308129 -1.633274 1.361059 
		CHANNELS 3 Xrotation Zrotation Yrotation
		JOINT lShin
		{
			OFFSET -2.041588 -20.007561 0.000000 
			CHANNELS 3 Xrotation Zrotation Yrotation
			JOINT lFoot
			{
				OFFSET 0.000000 -19.190928 -1.224953 
				CHANNELS 3 Xrotation Yrotation Zrotation
				End Site
				{
					OFFSET 0.000000 -2.449906 4.627600 
				}
			}
		}
	}
	JOINT rThigh
	{
		OFFSET -5.308129 -1.633274 1.361059 
		CHANNELS 3 Xrotation Zrotation Yrotation
		JOINT rShin
		{
			OFFSET 2.041588 -20.007561 0.000000 
			CHANNELS 3 Xrotation Zrotation Yrotation
			JOINT rFoot
			{
				OFFSET 0.000000 -19.190928 -1.224953 
				CHANNELS 3 Xrotation Yrotation Zrotation
				End Site
				{
					OFFSET 0.000000 -2.449906 4.627600 
				}
			}
		}
	}
}
MOTION
Frames: 11
Frame Time: 0.016667
-1.252976 45.132252 0.728913 5.049740 1.089510 -15.929000 -22.577700 1.730700 -3.446080 19.409800 4.959950 -1.299970 48.764301 15.696400 -4.891890 -8.603520 0.000000 0.000000 2.000000 -2.000000 0.000000 89.931602 178.391006 -1.165950 27.051100 -0.336608 0.062236 5.492380 -0.939630 -139.852997 -2.000000 2.000000 0.000000 -97.002899 179.768997 -6.737740 -30.117500 0.333108 0.068609 6.371160 1.981440 -132.309998 -5.651958 -3.344280 -1.103339 20.433807 2.997116 1.534006 -15.234079 19.898697 6.697944 -15.041722 -0.655133 9.507273 28.284321 -2.781085 -2.114588 -14.366577 -2.308246 -0.797327 
-1.229711 45.131477 0.729759 4.883140 0.661652 -15.988300 -22.462099 1.780530 -3.397350 19.390499 4.784170 -1.278580 48.835499 15.523700 -4.985920 -8.603520 0.000000 0.000000 2.000000 -2.000000 0.000000 90.097603 178.567001 -0.911621 26.904600 -0.336767 0.061925 5.490320 -0.933338 -139.940994 -2.000000 2.000000 0.000000 -96.875900 179.690994 -6.708260 -30.156601 0.333061 0.068690 6.377280 1.952540 -132.067001 -5.607265 -2.998260 -1.151963 21.008747 3.053771 1.555874 -15.638105 19.918011 6.784952 -14.669849 -0.208066 9.764774 28.087181 -2.791826 -2.120189 -14.364048 -2.681155 -0.885208 
-1.191347 45.127579 0.734541 4.785450 0.632553 -15.962600 -22.402300 1.711600 -3.386600 19.439600 4.706140 -1.282760 48.953800 15.427100 -4.991660 -8.603520 0.000000 0.000000 2.000000 -2.000000 0.000000 90.185501 178.733002 -0.930756 26.826500 -0.336851 0.061758 5.485790 -0.946849 -139.832993 -2.000000 2.000000 0.000000 -96.817299 179.643005 -6.581190 -30.117500 0.333108 0.068609 6.381870 1.925270 -131.862000 -5.541129 -3.028754 -1.051605 21.077801 3.056594 1.565264 -15.688433 19.804033 6.753379 -14.637493 -0.190287 9.853614 28.195057 -2.800744 -2.140115 -14.423874 -2.838286 -0.937917 
-1.152994 45.123558 0.739320 4.687770 0.613177 -15.935900 -22.332600 1.648400 -3.388700 19.488701 4.618340 -1.296660 49.048901 15.330600 -5.027110 -8.603520 0.000000 0.000000 2.000000 -2.000000 0.000000 90.263702 178.899002 -0.939939 26.738600 -0.336945 0.061571 5.487500 -0.952834 -139.725006 -2.000000 2.000000 0.000000 -96.748901 179.584000 -6.454100 -30.078400 0.333154 0.068529 6.393950 1.904220 -131.647995 -5.463103 -3.061398 -0.981664 21.108280 3.053057 1.574001 -15.711097 19.690435 6.737481 -14.555174 -0.211312 9.919724 28.301424 -2.808930 -2.121045 -14.538155 -3.024941 -0.974576 
-1.110970 45.112785 0.749866 4.609710 0.691117 -15.920700 -22.361601 1.606130 -3.362290 19.439699 4.637790 -1.291200 49.091900 15.345600 -4.970460 -8.603520 0.000000 0.000000 2.000000 -2.000000 0.000000 90.195297 178.811005 -1.086620 26.806900 -0.336872 0.061717 5.485350 -0.972877 -139.559006 -2.000000 2.000000 0.000000 -96.836800 179.712006 -6.288390 -30.000299 0.333248 0.068367 6.382890 1.905690 -131.686996 -5.327065 -3.163275 -0.801448 20.974775 3.019783 1.569838 -15.650670 19.535316 6.671899 -14.567462 -0.370689 9.803527 28.448090 -2.818478 -2.130855 -14.554137 -2.940115 -0.962978 
-1.068950 45.102146 0.760415 4.531660 0.769073 -15.905700 -22.390900 1.576340 -3.330400 19.380899 4.647460 -1.286370 49.145100 15.351600 -4.917570 -8.603520 0.000000 0.000000 2.000000 -2.000000 0.000000 90.126999 178.723999 -1.233300 26.875299 -0.336798 0.061862 5.479640 -0.985364 -139.393005 -2.000000 2.000000 0.000000 -96.914803 179.828995 -6.122650 -29.931999 0.333329 0.068226 6.388910 1.913630 -131.725998 -5.305475 -3.296947 -0.590805 20.990320 3.044356 1.554502 -15.643435 19.388044 6.620266 -14.538956 -0.544288 9.691218 28.528008 -2.811020 -2.147347 -14.558627 -2.856793 -0.962382 
-1.035094 45.102787 0.752919 4.502400 0.808046 -15.893300 -22.400700 1.532260 -3.281070 19.341700 4.647400 -1.270000 49.186001 15.451800 -4.915770 -8.603520 0.000000 0.000000 2.000000 -2.000000 0.000000 90.126999 178.822006 -1.340500 26.875299 -0.336798 0.061862 5.487310 -0.979060 -139.470993 -2.000000 2.000000 0.000000 -96.904999 179.927002 -5.966640 -29.971001 0.333283 0.068307 6.387600 1.915100 -131.764999 -5.279274 -3.352866 -0.535945 20.943747 3.027375 1.561818 -15.613100 19.273157 6.572214 -14.626534 -0.597797 9.688651 28.664618 -2.814534 -2.136388 -14.572567 -2.947138 -0.967353 
-1.001235 45.103439 0.745421 4.482910 0.847011 -15.871000 -22.400700 1.497390 -3.235040 19.292700 4.647310 -1.254430 49.228001 15.548400 -4.904870 -8.603520 0.000000 0.000000 2.000000 -2.000000 0.000000 90.126999 178.919006 -1.447710 26.875299 -0.336798 0.061862 5.485190 -0.972737 -139.548996 -2.000000 2.000000 0.000000 -96.885498 -179.985001 -5.810600 -30.010099 0.333236 0.068387 6.383840 1.923060 -131.804001 -5.299732 -3.406191 -0.437167 20.944204 3.026937 1.571522 -15.588600 19.138216 6.526608 -14.665028 -0.667233 9.690968 28.733456 -2.816865 -2.145611 -14.571838 -2.996613 -0.993751 
-0.972956 45.100842 0.750754 4.434050 0.817858 -15.913000 -22.372000 1.464240 -3.156690 19.292801 4.578970 -1.223630 49.266998 15.503900 -4.975120 -8.603520 0.000000 0.000000 2.000000 -2.000000 0.000000 90.205101 179.007004 -1.379150 26.973000 -0.336693 0.062070 5.499610 -0.932939 -139.910995 -2.000000 2.000000 0.000000 -96.797600 -179.876999 -5.908510 -30.019800 0.333225 0.068407 6.382200 1.924900 -131.852997 -5.189204 -3.434911 -0.526777 20.848318 3.007020 1.569268 -15.578468 19.216721 6.568449 -14.662615 -0.665344 9.661839 28.811220 -2.824647 -2.146418 -14.556132 -2.977118 -0.982656 
-0.944673 45.098251 0.756087 4.394950 0.788690 -15.945100 -22.343201 1.422040 -3.074680 19.302799 4.510640 -1.192070 49.285801 15.453200 -5.062370 -8.603520 0.000000 0.000000 2.000000 -2.000000 0.000000 90.283203 179.095001 -1.310600 27.070601 -0.336587 0.062278 5.497510 -0.900165 -140.272995 -2.000000 2.000000 0.000000 -96.709702 -179.779999 -6.006400 -30.029600 0.333213 0.068428 6.378420 1.932870 -131.891006 -5.118938 -3.454607 -0.612245 20.827818 3.009732 1.560269 -15.605297 19.306307 6.577486 -14.638272 -0.681969 9.606146 28.849825 -2.831721 -2.147523 -14.532090 -2.942474 -0.985634 
-0.921000 45.100327 0.763056 4.414380 0.691303 -15.932800 -22.323999 1.443850 -3.072190 19.351700 4.520490 -1.188440 49.296799 15.472400 -5.069110 -8.603520 0.000000 0.000000 2.000000 -2.000000 0.000000 90.263702 179.065002 -1.213010 27.158501 -0.336491 0.062465 5.500290 -0.907061 -140.223999 -2.000000 2.000000 0.000000 -96.670700 -179.770996 -6.201730 -29.805000 0.333480 0.067963 6.383190 1.923790 -131.822998 -5.197677 -3.393126 -0.652043 21.011938 3.036428 1.572269 -15.686452 19.359947 6.604276 -14.638750 -0.603735 9.600657 28.849878 -2.831113 -2.147338 -14.533113 -2.933967 -0.992059 
